<svg width="32" height="32" viewBox="0 0 32 32" fill="none" xmlns="http://www.w3.org/2000/svg">
<path d="M24.0002 17.5733V13.3333C23.9982 11.4441 23.3278 9.61658 22.1076 8.17433C20.8875 6.73207 19.1962 5.76815 17.3335 5.45329V3.99996C17.3335 3.64634 17.193 3.3072 16.943 3.05715C16.6929 2.8071 16.3538 2.66663 16.0002 2.66663C15.6465 2.66663 15.3074 2.8071 15.0574 3.05715C14.8073 3.3072 14.6668 3.64634 14.6668 3.99996V5.45329C12.8041 5.76815 11.1129 6.73207 9.89268 8.17433C8.67249 9.61658 8.00208 11.4441 8.00016 13.3333V17.5733C7.2221 17.8484 6.54816 18.3574 6.07075 19.0305C5.59333 19.7037 5.33582 20.508 5.3335 21.3333V24C5.3335 24.3536 5.47397 24.6927 5.72402 24.9428C5.97407 25.1928 6.31321 25.3333 6.66683 25.3333H10.8535C11.1605 26.4631 11.8308 27.4605 12.761 28.1716C13.6911 28.8827 14.8294 29.268 16.0002 29.268C17.171 29.268 18.3092 28.8827 19.2394 28.1716C20.1695 27.4605 20.8398 26.4631 21.1468 25.3333H25.3335C25.6871 25.3333 26.0263 25.1928 26.2763 24.9428C26.5264 24.6927 26.6668 24.3536 26.6668 24V21.3333C26.6645 20.508 26.407 19.7037 25.9296 19.0305C25.4522 18.3574 24.7782 17.8484 24.0002 17.5733ZM10.6668 13.3333C10.6668 11.9188 11.2287 10.5623 12.2289 9.56206C13.2291 8.56186 14.5857 7.99996 16.0002 7.99996C17.4146 7.99996 18.7712 8.56186 19.7714 9.56206C20.7716 10.5623 21.3335 11.9188 21.3335 13.3333V17.3333H10.6668V13.3333ZM16.0002 26.6666C15.5348 26.6638 15.0783 26.5393 14.6759 26.3054C14.2736 26.0715 13.9395 25.7363 13.7068 25.3333H18.2935C18.0608 25.7363 17.7267 26.0715 17.3244 26.3054C16.9221 26.5393 16.4655 26.6638 16.0002 26.6666ZM24.0002 22.6666H8.00016V21.3333C8.00016 20.9797 8.14064 20.6405 8.39069 20.3905C8.64074 20.1404 8.97987 20 9.3335 20H22.6668C23.0205 20 23.3596 20.1404 23.6096 20.3905C23.8597 20.6405 24.0002 20.9797 24.0002 21.3333V22.6666Z" fill="#424C5D"/>
</svg>
