<svg width="540" height="165" viewBox="0 0 540 165" fill="none" xmlns="http://www.w3.org/2000/svg">
<path d="M1.15408 141.553L3.8447 148.266L6.53532 130.807L9.84255 115.587L13.1498 124.539L16.457 133.49L19.7642 118.27L23.0715 103.05L26.3787 112.002L29.6859 120.953L32.9931 105.733L34.955 97.0057L36.917 112.45L38.8789 127.893L40.8408 119.166L42.8027 110.438L44.7646 125.882L46.7265 141.326L48.6884 132.598L50.6503 131.122L52.6123 139.314L54.5742 147.507L56.5361 146.03L58.498 146.971L60.4599 155.164L62.4218 153.688L64.3837 161.88L68.3636 155.702L72.3435 159.194L76.3234 153.016L80.3033 154.09L84.2831 150.33L88.263 153.821L92.2429 147.643L96.2228 151.134L98.1847 144.733L100.147 148L102.109 142.807L104.07 144.866L106.032 138.464L107.994 141.731L109.956 135.33L111.918 137.389L113.88 132.196L115.842 135.463L117.804 130.27L119.766 141.997L121.728 127.136L123.69 127.986L125.651 113.125L127.613 123.643L129.603 121.27L131.593 115.271L133.583 114.106L135.573 108.107L137.563 109.359L139.553 99.7343L141.543 110.655L143.533 93.7789L145.523 93.8227L147.513 74.5292L149.503 96.3273L151.493 68.5739L153.483 77.0777L155.473 75.9128L157.463 67.4966L159.452 68.7489L161.442 56.4847L163.432 82.895L165.422 73.0479L167.412 69.2438L169.402 82.3597L171.392 76.1384L173.382 84.42L175.372 84.2416L177.362 90.106L179.352 88.719L181.342 94.5835L183.332 93.1965L185.322 95.4352L187.312 101.3L189.302 99.9127L191.292 102.151L195.215 102.912L199.139 89.1702L203.063 102.017L206.987 112.446L210.911 101.121L214.834 94.6306L218.758 106.269L222.682 98.5694L226.662 104.165L230.642 97.674L234.622 97.2262L238.602 102.821L242.582 96.3307L246.561 95.883L250.541 83.3495L254.521 82.9017L256.483 97.674L258.445 100.36L260.407 109.09L262.369 105.733L264.331 108.42L266.293 117.149L268.255 113.793L270.216 104.394L272.178 125.209L274.14 121.852L276.102 124.539L278.064 139.311L280.026 117.826L281.988 144.684L283.95 135.285L285.912 137.971L287.902 135.508L289.892 128.212L291.882 130.583L293.872 122.078L295.862 125.658L297.851 117.153L299.841 120.733L301.831 112.227L305.811 113.345L307.801 118.134L309.791 108.42L311.781 113.209L313.771 103.495L315.761 108.283L317.751 98.5694L319.713 83.1256L321.675 91.8533L323.637 76.4094L325.598 85.1371L327.56 81.779L329.522 66.3352L331.484 75.0628L333.446 71.7047L335.408 80.4323L337.37 64.9885L339.332 73.7162L341.294 58.2723L343.256 67L345.218 51.5561L347.18 48.1981L349.141 56.9257L353.121 32.3065L357.101 43.9445L361.081 55.5825L365.061 43.049L369.041 66.7727L373.021 54.2392L377.001 41.7057L380.981 29.1723L382.97 44.1683L384.96 59.1644L386.95 49.989L388.94 52.8994L390.93 67.8955L392.92 58.7201L394.91 49.5447L396.9 64.5408L398.89 67.4511L400.88 58.2757L402.87 73.2718L404.86 76.1822L406.85 91.1782L408.84 82.0029L410.83 84.9132L412.82 99.9093L416.743 88.5145L420.667 77.1196L424.591 89.8962L428.515 78.5014L432.439 91.278L436.363 87.1346L440.286 95.0769L444.21 88.5164L448.19 95.7678L452.17 88.5164L456.15 93.3507L460.13 81.2649L464.11 93.3507L468.089 105.436L472.069 81.2649L476.049 93.3507L478.011 90.3188L479.973 99.3726L481.935 84.2549L483.897 93.3087L485.859 78.1911L487.821 63.0734L489.783 72.1272L491.745 81.1811L493.706 66.0634L495.668 50.9458L497.63 59.9996L499.592 69.0534L501.554 53.9357L503.516 38.8181L505.478 47.8719L507.44 44.84L509.093 54.9108L510.747 40.8102L512.401 38.7954L514.054 36.7805L515.708 34.7657L517.362 44.8366L519.015 30.736L520.669 28.7211L522.322 14.6205L523.976 24.6914L525.63 22.6766L527.283 8.57596L528.937 18.6468L530.59 16.632L532.244 14.6171L533.898 0.264893L536.588 12.6023H539.279" stroke="#0061FF" stroke-width="2.48581"/>
</svg>
