<svg width="20" height="20" viewBox="0 0 20 20" fill="none" xmlns="http://www.w3.org/2000/svg">
<g clip-path="url(#clip0_1811_4850)">
<path d="M19.7 12.4191C18.3644 17.7763 12.9381 21.0363 7.58031 19.7006C2.22499 18.365 -1.03532 12.9388 0.300619 7.58188C1.63562 2.22406 7.06156 -1.03656 12.4178 0.299066C17.7753 1.63469 21.0353 7.06157 19.6997 12.4191H19.7Z" fill="#F7931A"/>
<path d="M14.4091 8.57531C14.6079 7.24469 13.5948 6.52938 12.2094 6.05219L12.6588 4.24969L11.5613 3.97625L11.1238 5.73125C10.8357 5.65938 10.5394 5.59156 10.2451 5.52437L10.6857 3.75781L9.58913 3.48438L9.13944 5.28625C8.90069 5.23188 8.66632 5.17813 8.43882 5.12156L8.44007 5.11594L6.92694 4.73813L6.63507 5.91C6.63507 5.91 7.44913 6.09656 7.43194 6.10812C7.87632 6.21906 7.95694 6.51312 7.94319 6.74625L7.43132 8.79969C7.46194 8.8075 7.50163 8.81875 7.54538 8.83625L7.42976 8.8075L6.71194 11.6841C6.65757 11.8191 6.51976 12.0216 6.20913 11.9447C6.22007 11.9606 5.41163 11.7456 5.41163 11.7456L4.86694 13.0019L6.29507 13.3578C6.56069 13.4244 6.82101 13.4941 7.07694 13.5597L6.62288 15.3831L7.71882 15.6566L8.16882 13.8528C8.46788 13.9341 8.75851 14.0091 9.04288 14.0797L8.59476 15.875L9.69194 16.1484L10.146 14.3288C12.0169 14.6828 13.4241 14.54 14.0157 12.8481C14.4929 11.4856 13.9923 10.6997 13.0079 10.1869C13.7248 10.0209 14.2648 9.54938 14.4088 8.57531H14.4091ZM11.9019 12.0906C11.5626 13.4531 9.26882 12.7169 8.52476 12.5319L9.12726 10.1166C9.87101 10.3022 12.2557 10.6697 11.9023 12.0906H11.9019ZM12.241 8.55562C11.9316 9.795 10.0223 9.16531 9.40257 9.01094L9.94882 6.82031C10.5685 6.97469 12.5635 7.26281 12.241 8.55562Z" fill="white"/>
</g>
<defs>
<clipPath id="clip0_1811_4850">
<rect width="20" height="20" fill="white"/>
</clipPath>
</defs>
</svg>
