<svg width="20" height="20" viewBox="0 0 20 20" fill="none" xmlns="http://www.w3.org/2000/svg">
<g clip-path="url(#clip0_1811_4378)">
<path d="M9.99984 15.8334C10.1647 15.8334 10.3258 15.7845 10.4628 15.6929C10.5999 15.6014 10.7067 15.4712 10.7697 15.3189C10.8328 15.1667 10.8493 14.9991 10.8172 14.8375C10.785 14.6758 10.7056 14.5273 10.5891 14.4108C10.4725 14.2942 10.3241 14.2149 10.1624 14.1827C10.0008 14.1506 9.83321 14.1671 9.68093 14.2301C9.52866 14.2932 9.39851 14.4 9.30695 14.5371C9.21538 14.6741 9.1665 14.8352 9.1665 15C9.1665 15.2211 9.2543 15.433 9.41058 15.5893C9.56686 15.7456 9.77882 15.8334 9.99984 15.8334ZM14.1665 15.8334C14.3313 15.8334 14.4924 15.7845 14.6295 15.6929C14.7665 15.6014 14.8733 15.4712 14.9364 15.3189C14.9995 15.1667 15.016 14.9991 14.9838 14.8375C14.9517 14.6758 14.8723 14.5273 14.7558 14.4108C14.6392 14.2942 14.4907 14.2149 14.3291 14.1827C14.1674 14.1506 13.9999 14.1671 13.8476 14.2301C13.6953 14.2932 13.5652 14.4 13.4736 14.5371C13.382 14.6741 13.3332 14.8352 13.3332 15C13.3332 15.2211 13.421 15.433 13.5772 15.5893C13.7335 15.7456 13.9455 15.8334 14.1665 15.8334ZM14.1665 12.5C14.3313 12.5 14.4924 12.4512 14.6295 12.3596C14.7665 12.268 14.8733 12.1379 14.9364 11.9856C14.9995 11.8333 15.016 11.6658 14.9838 11.5041C14.9517 11.3425 14.8723 11.194 14.7558 11.0775C14.6392 10.9609 14.4907 10.8815 14.3291 10.8494C14.1674 10.8172 13.9999 10.8337 13.8476 10.8968C13.6953 10.9599 13.5652 11.0667 13.4736 11.2037C13.382 11.3408 13.3332 11.5019 13.3332 11.6667C13.3332 11.8877 13.421 12.0997 13.5772 12.256C13.7335 12.4122 13.9455 12.5 14.1665 12.5ZM9.99984 12.5C10.1647 12.5 10.3258 12.4512 10.4628 12.3596C10.5999 12.268 10.7067 12.1379 10.7697 11.9856C10.8328 11.8333 10.8493 11.6658 10.8172 11.5041C10.785 11.3425 10.7056 11.194 10.5891 11.0775C10.4725 10.9609 10.3241 10.8815 10.1624 10.8494C10.0008 10.8172 9.83321 10.8337 9.68093 10.8968C9.52866 10.9599 9.39851 11.0667 9.30695 11.2037C9.21538 11.3408 9.1665 11.5019 9.1665 11.6667C9.1665 11.8877 9.2543 12.0997 9.41058 12.256C9.56686 12.4122 9.77882 12.5 9.99984 12.5ZM15.8332 2.50004H14.9998V1.66671C14.9998 1.44569 14.912 1.23373 14.7558 1.07745C14.5995 0.921171 14.3875 0.833374 14.1665 0.833374C13.9455 0.833374 13.7335 0.921171 13.5772 1.07745C13.421 1.23373 13.3332 1.44569 13.3332 1.66671V2.50004L6.6665 2.50004V1.66671C6.6665 1.44569 6.57871 1.23373 6.42243 1.07745C6.26615 0.921171 6.05418 0.833374 5.83317 0.833374C5.61216 0.833374 5.4002 0.921171 5.24392 1.07745C5.08764 1.23373 4.99984 1.44569 4.99984 1.66671V2.50004H4.1665C3.50346 2.50004 2.86758 2.76343 2.39874 3.23227C1.9299 3.70111 1.6665 4.337 1.6665 5.00004L1.6665 16.6667C1.6665 17.3297 1.9299 17.9656 2.39874 18.4345C2.86758 18.9033 3.50346 19.1667 4.1665 19.1667H15.8332C16.4962 19.1667 17.1321 18.9033 17.6009 18.4345C18.0698 17.9656 18.3332 17.3297 18.3332 16.6667V5.00004C18.3332 4.337 18.0698 3.70111 17.6009 3.23227C17.1321 2.76343 16.4962 2.50004 15.8332 2.50004ZM16.6665 16.6667C16.6665 16.8877 16.5787 17.0997 16.4224 17.256C16.2661 17.4122 16.0542 17.5 15.8332 17.5H4.1665C3.94549 17.5 3.73353 17.4122 3.57725 17.256C3.42097 17.0997 3.33317 16.8877 3.33317 16.6667L3.33317 9.16671H16.6665V16.6667ZM16.6665 7.50004L3.33317 7.50004L3.33317 5.00004C3.33317 4.77903 3.42097 4.56707 3.57725 4.41078C3.73353 4.2545 3.94549 4.16671 4.1665 4.16671H4.99984V5.00004C4.99984 5.22105 5.08764 5.43302 5.24392 5.5893C5.4002 5.74558 5.61216 5.83337 5.83317 5.83337C6.05418 5.83337 6.26615 5.74558 6.42243 5.5893C6.57871 5.43302 6.6665 5.22105 6.6665 5.00004V4.16671H13.3332V5.00004C13.3332 5.22105 13.421 5.43302 13.5772 5.5893C13.7335 5.74558 13.9455 5.83337 14.1665 5.83337C14.3875 5.83337 14.5995 5.74558 14.7558 5.5893C14.912 5.43302 14.9998 5.22105 14.9998 5.00004V4.16671H15.8332C16.0542 4.16671 16.2661 4.2545 16.4224 4.41078C16.5787 4.56707 16.6665 4.77903 16.6665 5.00004V7.50004ZM5.83317 12.5C5.99799 12.5 6.1591 12.4512 6.29615 12.3596C6.43319 12.268 6.54 12.1379 6.60307 11.9856C6.66614 11.8333 6.68265 11.6658 6.65049 11.5041C6.61834 11.3425 6.53897 11.194 6.42243 11.0775C6.30588 10.9609 6.1574 10.8815 5.99575 10.8494C5.8341 10.8172 5.66654 10.8337 5.51427 10.8968C5.362 10.9599 5.23185 11.0667 5.14028 11.2037C5.04871 11.3408 4.99984 11.5019 4.99984 11.6667C4.99984 11.8877 5.08764 12.0997 5.24392 12.256C5.4002 12.4122 5.61216 12.5 5.83317 12.5ZM5.83317 15.8334C5.99799 15.8334 6.1591 15.7845 6.29615 15.6929C6.43319 15.6014 6.54 15.4712 6.60307 15.3189C6.66614 15.1667 6.68265 14.9991 6.65049 14.8375C6.61834 14.6758 6.53897 14.5273 6.42243 14.4108C6.30588 14.2942 6.1574 14.2149 5.99575 14.1827C5.8341 14.1506 5.66654 14.1671 5.51427 14.2301C5.362 14.2932 5.23185 14.4 5.14028 14.5371C5.04871 14.6741 4.99984 14.8352 4.99984 15C4.99984 15.2211 5.08764 15.433 5.24392 15.5893C5.4002 15.7456 5.61216 15.8334 5.83317 15.8334Z" fill="#75839D"/>
</g>
<defs>
<clipPath id="clip0_1811_4378">
<rect width="20" height="20" fill="white"/>
</clipPath>
</defs>
</svg>
