<svg width="151" height="46" viewBox="0 0 151 46" fill="none" xmlns="http://www.w3.org/2000/svg">
<path opacity="0.5" fill-rule="evenodd" clip-rule="evenodd" d="M0.359928 18.5312L1.86633 17.0288C3.37273 15.5263 6.26 12.5215 9.2728 13.5231C12.1601 14.5247 15.1729 19.5328 18.0601 21.0352C21.0729 22.5376 23.9602 20.5344 26.973 19.5328C29.8603 18.5312 32.8731 18.5312 35.7603 16.0271C38.7731 13.5231 41.6604 8.51504 44.6732 8.01424C47.5605 7.51343 50.5733 11.5199 53.5861 13.0223C56.4734 14.5247 59.4862 13.5231 62.3734 12.5215C65.3862 11.5199 68.2735 10.5183 71.2863 12.0207C74.1736 13.5231 77.1864 17.5296 80.0736 18.0304C83.0864 18.5312 85.9737 15.5263 88.9865 12.5215C91.8738 9.51666 94.8866 6.51182 97.7738 5.0094C100.787 3.50698 103.799 3.50698 106.687 4.50859C109.7 5.5102 112.587 7.51343 115.6 11.0191C118.487 14.5247 121.5 8.78701 124.387 11.7918C127.4 14.7967 130.287 15.7983 133.3 11.7918C136.187 7.78539 139.2 9.51666 142.087 5.0094C145.1 0.502134 147.987 0.502134 149.494 0.502134H151V45.6942H149.494C147.987 45.6942 145.1 45.6942 142.087 45.6942C139.2 45.6942 136.187 45.6942 133.3 45.6942C130.287 45.6942 127.4 45.6942 124.387 45.6942C121.5 45.6942 118.487 45.6942 115.6 45.6942C112.587 45.6942 109.7 45.6942 106.687 45.6942C103.799 45.6942 100.787 45.6942 97.7738 45.6942C94.8866 45.6942 91.8738 45.6942 88.9865 45.6942C85.9737 45.6942 83.0864 45.6942 80.0736 45.6942C77.1864 45.6942 74.1736 45.6942 71.2863 45.6942C68.2735 45.6942 65.3862 45.6942 62.3734 45.6942C59.4862 45.6942 56.4734 45.6942 53.5861 45.6942C50.5733 45.6942 47.5605 45.6942 44.6732 45.6942C41.6604 45.6942 38.7731 45.6942 35.7603 45.6942C32.8731 45.6942 29.8603 45.6942 26.973 45.6942C23.9602 45.6942 21.0729 45.6942 18.0601 45.6942C15.1729 45.6942 12.1601 45.6942 9.2728 45.6942C6.26 45.6942 3.37273 45.6942 1.86633 45.6942H0.359928V18.5312Z" fill="#E0ECFF"/>
<path d="M0.359928 19.0606L1.86633 17.5141C3.37273 15.9675 6.26 12.8745 9.2728 13.9055C12.1601 14.9365 15.1729 20.0917 18.0601 21.6382C21.0729 23.1847 23.9602 21.1227 26.973 20.0917C29.8603 19.0606 32.8731 19.0606 35.7603 16.4831C38.7731 13.9055 41.6604 8.75035 44.6732 8.23484C47.5605 7.71933 50.5733 11.8434 53.5861 13.39C56.4734 14.9365 59.4862 13.9055 62.3734 12.8745C65.3862 11.8434 68.2735 10.8124 71.2863 12.359C74.1736 13.9055 77.1864 18.0296 80.0736 18.5451C83.0864 19.0606 85.9737 15.9675 88.9865 12.8745C91.8738 9.78138 94.8866 6.6883 97.7738 5.14176C100.787 3.59522 103.799 3.59522 106.687 4.62624C109.7 5.65727 112.587 7.71933 115.6 11.3279C118.487 14.9365 121.5 9.0303 124.387 12.1234C127.4 15.2165 130.287 16.2475 133.3 12.1234C136.187 7.99927 139.2 9.78138 142.087 5.14176C145.1 0.502134 147.987 0.502134 149.494 0.502134H151" stroke="#0061FF"/>
</svg>
